HIERARCHY
ROOT root
{
	OFFSET 0.000000 0.000000 0.000000
	CHANNELS 6 Xposition Yposition Zposition Zrotation Yrotation Xrotation
	JOINT lhip
	{
		OFFSET 0.058581 -0.082280 -0.017664
		CHANNELS 3 Zrotation Yrotation Xrotation
		JOINT lknee
		{
			OFFSET 0.043451 -0.386469 0.008037
			CHANNELS 3 Zrotation Yrotation Xrotation
			JOINT lankle
			{
				OFFSET -0.014790 -0.426874 -0.037428
				CHANNELS 3 Zrotation Yrotation Xrotation
				JOINT ltoe
				{
					OFFSET 0.041054 -0.060286 0.122042
					CHANNELS 3 Zrotation Yrotation Xrotation
					End Site
					{
						OFFSET 0.000000 0.000000 0.000000
					}
				}
			}
		}
	}
	JOINT rhip
	{
		OFFSET -0.060310 -0.090513 -0.013543
		CHANNELS 3 Zrotation Yrotation Xrotation
		JOINT rknee
		{
			OFFSET -0.043257 -0.383688 -0.004843
			CHANNELS 3 Zrotation Yrotation Xrotation
			JOINT rankle
			{
				OFFSET 0.019056 -0.420046 -0.034562
				CHANNELS 3 Zrotation Yrotation Xrotation
				JOINT rtoe
				{
					OFFSET -0.034840 -0.062106 0.130323
					CHANNELS 3 Zrotation Yrotation Xrotation
					End Site
					{
						OFFSET 0.000000 0.000000 0.000000
					}
				}
			}
		}
	}
	JOINT lowerback
	{
		OFFSET 0.004439 0.124404 -0.038385
		CHANNELS 3 Zrotation Yrotation Xrotation
		JOINT upperback
		{
			OFFSET 0.004488 0.137956 0.026820
			CHANNELS 3 Zrotation Yrotation Xrotation
			JOINT chest
			{
				OFFSET -0.002265 0.056032 0.002855
				CHANNELS 3 Zrotation Yrotation Xrotation
				JOINT lowerneck
				{
					OFFSET -0.013390 0.211636 -0.033468
					CHANNELS 3 Zrotation Yrotation Xrotation
					JOINT upperneck
					{
						OFFSET 0.010113 0.088937 0.050410
						CHANNELS 3 Zrotation Yrotation Xrotation
						End Site
						{
							OFFSET 0.000000 0.000000 0.000000
						}
					}
				}
				JOINT lclavicle
				{
					OFFSET 0.071702 0.114000 -0.018898
					CHANNELS 3 Zrotation Yrotation Xrotation
					JOINT lshoulder
					{
						OFFSET 0.122921 0.045205 -0.019046
						CHANNELS 3 Zrotation Yrotation Xrotation
						JOINT lelbow
						{
							OFFSET 0.255332 -0.015649 -0.022946
							CHANNELS 3 Zrotation Yrotation Xrotation
							JOINT lwrist
							{
								OFFSET 0.265709 0.012698 -0.007375
								CHANNELS 3 Zrotation Yrotation Xrotation
								End Site
								{
									OFFSET 0.000000 0.000000 0.000000
								}
							}
						}
					}
				}
				JOINT rclavicle
				{
					OFFSET -0.082954 0.112472 -0.023707
					CHANNELS 3 Zrotation Yrotation Xrotation
					JOINT rshoulder
					{
						OFFSET -0.113228 0.046853 -0.008472
						CHANNELS 3 Zrotation Yrotation Xrotation
						JOINT relbow
						{
							OFFSET -0.260127 -0.014369 -0.031269
							CHANNELS 3 Zrotation Yrotation Xrotation
							JOINT rwrist
							{
								OFFSET -0.269108 0.006794 -0.006027
								CHANNELS 3 Zrotation Yrotation Xrotation
								End Site
								{
									OFFSET 0.000000 0.000000 0.000000
								}
							}
						}
					}
				}
			}
		}
	}
}
MOTION
Frames: 11
Frame Time: 0.033333
-0.901497 0.395158 0.959218 -40.236437 -0.753408 101.364506 9.145141 -3.116284 -33.367792 -15.400915 -7.088953 51.615908 -0.601523 -3.941125 -6.987652 0.000000 -0.000000 0.000000 -8.357881 -1.458683 -46.072834 1.640342 -0.184113 32.310805 11.130982 2.916778 5.731586 0.000000 -0.000000 0.000000 -0.867664 -3.226776 21.974723 2.435848 0.482741 -10.517199 0.623446 -2.153434 -3.462236 -2.494851 15.149290 -26.026890 -0.384646 8.986131 -5.809872 -20.549354 7.988314 -6.903049 -52.327961 -20.070831 17.152267 28.578998 -78.224999 -2.819128 6.230603 -16.413472 -25.193487 26.307480 -8.834756 -4.941799 57.767877 5.365820 14.604588 -11.130341 12.608524 -3.732377 10.507374 4.935211 -7.324746 
-0.931946 0.385666 0.953512 -38.613298 -1.535532 100.541103 9.587511 -2.886990 -35.084320 -16.262002 -6.294945 57.161269 -1.485697 -5.188805 -4.478998 0.000000 -0.000000 0.000000 -9.115696 -1.190022 -44.732381 1.894093 -1.038211 36.542894 9.253618 3.332490 -1.161894 0.000000 -0.000000 0.000000 -0.558113 -3.045289 22.400895 2.213386 0.826920 -11.226654 -0.008434 -1.824425 -3.309986 -2.366816 15.442178 -25.804233 0.096389 7.541967 -3.389098 -20.895770 8.745803 -6.518600 -52.286819 -17.891633 16.758537 18.102875 -77.303161 7.166688 0.623615 -16.039363 -25.822828 26.732741 -9.111291 -4.813279 57.513004 5.805212 13.630721 -11.835229 13.255879 -4.070702 12.194339 4.629680 -7.901951 
-0.960039 0.377987 0.940974 -37.604021 -2.757733 99.583684 9.372993 -2.389126 -37.127237 -16.368047 -4.838863 63.319845 -1.129047 -4.836444 -5.518814 0.000000 -0.000000 0.000000 -8.788007 -1.833414 -44.515215 2.687060 1.387091 41.452008 6.383165 3.106478 -7.756945 0.000000 -0.000000 0.000000 -0.951745 -2.268593 22.996376 1.995723 1.024515 -11.221799 -0.402953 -1.600328 -3.055022 -2.154880 15.651553 -26.067323 -0.632356 7.060036 -2.116044 -21.718491 9.020595 -6.422739 -51.090289 -15.649907 16.382780 9.945053 -75.930925 14.665054 1.130439 -14.914570 -26.043009 27.339122 -8.427653 -5.955454 56.231270 6.203963 13.537635 -11.668299 13.534576 -4.232096 12.591628 4.516049 -7.521149 
-0.984046 0.371648 0.926934 -36.694586 -3.275645 99.032088 9.846172 -1.777269 -39.381169 -14.164003 -2.727801 67.149119 1.444572 -1.659728 -10.724720 0.000000 -0.000000 0.000000 -8.541401 -1.570957 -45.181435 2.816386 0.287192 46.656747 4.760428 1.516773 -13.184993 0.000000 -0.000000 0.000000 -0.766070 -2.163311 24.062881 1.925810 1.599876 -11.762966 -0.577819 -1.364874 -2.550425 -1.640279 15.739109 -26.752776 -2.171488 6.871633 -1.719760 -23.244290 9.915229 -6.248350 -49.870130 -13.605841 15.330893 5.351946 -74.355785 18.940119 2.246527 -14.703644 -22.972432 28.293021 -7.553963 -6.836604 53.179223 8.216441 13.371043 -10.388028 13.905279 -3.808387 10.220762 5.114696 -5.472068 
-1.003831 0.366872 0.912294 -36.383943 -3.994105 99.163793 10.149966 -1.234901 -42.139194 -12.129893 -1.060664 69.018548 2.577679 0.274764 -15.793357 0.000000 -0.000000 0.000000 -8.025134 -1.433564 -46.145905 2.400352 0.058153 50.362587 3.971327 0.033257 -17.821041 0.000000 -0.000000 0.000000 -0.786608 -1.981490 25.196150 1.701616 1.965945 -12.320630 -0.630351 -1.136169 -2.534817 -1.509600 15.867832 -27.863432 -3.222761 7.129164 -2.052871 -24.259880 11.141758 -5.896597 -49.296299 -11.164644 14.007751 3.618670 -73.441738 21.987516 4.022882 -14.715962 -18.669399 28.401996 -6.226804 -7.300699 50.904803 10.449130 12.848738 -10.156018 14.712509 -3.004131 8.539142 5.557946 -3.778745 
-1.022235 0.362793 0.899984 -35.408818 -4.374130 98.716630 10.614520 -1.189966 -43.910530 -12.104172 -0.988516 69.023897 2.716624 0.919973 -19.184887 0.000000 -0.000000 0.000000 -9.011952 0.086420 -46.328458 2.663088 -1.699379 53.889305 3.408977 -0.921678 -21.649903 0.000000 -0.000000 0.000000 -0.210566 -2.322399 27.296579 1.418333 2.314475 -13.061746 -0.818855 -0.928674 -2.573809 -1.264785 16.120253 -28.840624 -4.440843 6.804668 -2.686499 -24.614726 11.844675 -5.650564 -49.715329 -8.294927 12.818234 5.404926 -72.928553 23.493810 4.701107 -13.287660 -13.235278 27.879577 -4.982346 -7.514321 49.404386 12.124816 11.682687 -10.889191 17.313340 -3.626037 5.752663 5.526877 -3.986593 
-1.032479 0.361213 0.889236 -35.702478 -5.791183 99.976137 9.921857 -1.021295 -46.909058 -12.312293 -0.190292 66.991291 3.934153 0.487528 -20.242345 0.000000 -0.000000 0.000000 -8.691509 -0.800271 -49.521941 2.593409 0.346505 57.750080 2.543078 -1.408262 -23.302537 0.000000 -0.000000 0.000000 -0.565403 -1.928848 27.419735 0.983368 2.789999 -12.713155 -1.105628 -0.670156 -2.652292 -1.312231 16.198338 -30.218043 -5.657000 6.557195 -3.974260 -25.228134 12.711621 -5.772959 -49.962802 -6.386826 12.006082 5.482097 -73.236344 25.207689 4.302669 -11.277494 -9.619217 27.218881 -4.323927 -7.615097 48.525228 14.473599 10.953043 -13.056966 20.440250 -6.608156 3.513955 5.751058 -4.659548 
-1.042613 0.358857 0.883092 -35.652936 -6.529154 100.598280 9.739803 -1.242278 -48.344320 -12.326553 0.034041 63.617450 3.769893 0.083932 -20.788424 0.000000 -0.000000 0.000000 -9.487951 -0.593748 -50.756244 2.698163 -0.255610 59.650861 2.527866 -1.367543 -24.621691 0.000000 -0.000000 0.000000 -0.060922 -1.786052 28.335727 0.537831 3.282493 -12.609872 -1.573583 -0.292469 -2.850254 -1.753089 16.326451 -31.138627 -6.714929 5.999836 -5.280930 -25.457706 12.905044 -5.766951 -50.470350 -4.844078 11.559510 6.467190 -73.307755 25.734055 1.307365 -9.630883 -8.560259 26.814604 -4.094429 -8.044347 47.693736 16.157449 10.120741 -16.081022 24.445867 -10.010839 1.786646 5.851300 -6.834319 
-1.051134 0.357437 0.881148 -35.588886 -7.253585 101.353192 9.261465 -1.599990 -49.407937 -12.040638 -0.224591 59.722175 2.990230 -0.191091 -21.190960 0.000000 -0.000000 0.000000 -9.215658 -0.957969 -51.450265 2.717595 0.760239 60.303615 2.225150 -1.558686 -25.363312 0.000000 -0.000000 0.000000 0.074943 -1.464459 29.146145 0.213565 3.583734 -12.882432 -1.643237 -0.171462 -3.270428 -1.878274 16.486046 -31.361765 -7.578141 5.605180 -5.595086 -25.647323 12.995994 -5.932309 -50.397317 -3.279614 11.257797 5.561576 -73.261221 27.413942 -3.316817 -7.671150 -8.900558 26.017104 -3.484228 -8.198134 46.925336 17.472201 9.695398 -18.706412 27.705526 -14.032176 -0.113068 5.571087 -9.304790 
-1.057957 0.355180 0.882509 -35.237415 -7.633472 101.746484 8.770592 -1.987687 -49.834012 -12.037318 -1.229594 55.542029 2.585898 -0.799645 -19.989195 0.000000 -0.000000 0.000000 -9.386980 -0.970359 -51.123780 2.542291 0.673561 59.909728 2.024864 -1.643546 -25.527987 0.000000 -0.000000 0.000000 0.309722 -1.633444 29.378143 0.200950 3.480723 -12.354436 -1.497162 0.080008 -3.509111 -2.301905 16.478078 -31.499590 -7.775904 5.475807 -6.636825 -25.821311 12.854596 -5.920405 -50.640210 -2.266494 11.090969 5.929143 -73.403459 27.130198 -7.940547 -7.350665 -10.404879 25.110029 -2.259675 -7.310817 45.986590 19.288575 8.878405 -21.555652 30.315911 -17.957721 0.126476 6.527310 -12.508412 
-1.063686 0.352897 0.886713 -35.012914 -7.959908 102.253839 8.647361 -2.586348 -49.902290 -12.741049 -2.271907 51.135432 1.437684 -2.010339 -18.588835 0.000000 -0.000000 0.000000 -9.536869 -0.994263 -50.702323 2.267101 0.540831 58.953674 2.108453 -1.416721 -25.513453 0.000000 -0.000000 0.000000 0.574147 -1.591636 29.584953 0.056870 3.465841 -12.275766 -1.585265 0.289856 -3.775413 -2.460652 16.490406 -31.644014 -7.654225 4.757091 -6.888898 -25.570808 12.897325 -5.673243 -50.560012 -1.676774 11.169110 4.828520 -74.048009 27.456983 -10.788304 -8.369448 -11.713581 24.220797 -1.899456 -7.560234 46.109386 20.101440 8.883185 -24.101266 32.861332 -20.500702 0.281393 7.087736 -14.074879 
